<svg width="24" height="24" viewBox="-1.6 0 24 24" fill="none" xmlns="http://www.w3.org/2000/svg"><path d="M4.004 3.676L10.373 0l6.368 3.676L14.4 5.034l-4.027-2.318-4.028 2.318-2.341-1.358zM16.74 8.312L14.4 6.954l-4.027 2.318-4.028-2.318-2.341 1.358v2.716l4.027 2.318v4.636l2.342 1.358 2.341-1.358v-4.636l4.027-2.318V8.312zm0 7.352v-2.716L14.4 14.306v2.716l2.341-1.358zm1.663.96l-4.027 2.318v2.716l6.368-3.676V10.63l-2.341 1.358v4.636zm-2.341-10.63l2.34 1.358v2.716l2.342-1.358V5.994l-2.341-1.358-2.341 1.358zM8.03 19.926v2.716L10.373 24l2.341-1.358v-2.716l-2.341 1.358-2.342-1.358zm-4.027-4.262l2.341 1.358v-2.716l-2.341-1.358v2.716zm4.027-9.67l2.342 1.358 2.341-1.358-2.341-1.358L8.03 5.994zm-5.69 1.358l2.342-1.358L2.34 4.636 0 5.994V8.71l2.341 1.358V7.352zm0 4.636L0 10.63v7.352l6.369 3.677v-2.717L2.34 16.624v-4.636z" fill="#F0B90B"/></svg>