<svg width="439" height="499" viewBox="-20 -20 439 499" fill="none" xmlns="http://www.w3.org/2000/svg">
<path d="M65.2813 238.866C67.7147 236.434 71.014 235.069 74.4539 235.069H391.851C397.633 235.069 400.528 242.06 396.438 246.147L333.721 308.814C331.287 311.246 327.988 312.612 324.548 312.612H7.15051C1.36851 312.612 -1.52594 305.62 2.56418 301.533L65.2813 238.866Z" fill="url(#paint0_linear)"/>
<path d="M65.2813 4.74554C67.7147 2.31407 71.014 0.948242 74.4539 0.948242H391.851C397.633 0.948242 400.528 7.93999 396.438 12.0268L333.721 74.694C331.287 77.1255 327.988 78.4913 324.548 78.4913H7.15051C1.36851 78.4913 -1.52594 71.4996 2.56418 67.4127L65.2813 4.74554Z" fill="url(#paint1_linear)"/>
<path d="M333.721 121.06C331.287 118.629 327.988 117.263 324.548 117.263H7.1505C1.36851 117.263 -1.52594 124.255 2.56417 128.341L65.2813 191.009C67.7147 193.44 71.014 194.806 74.4539 194.806H391.851C397.633 194.806 400.528 187.814 396.438 183.727L333.721 121.06Z" fill="url(#paint2_linear)"/>
<path d="M16.8321 436.755H38.5561C41.6076 436.755 44.0813 439.262 44.0813 442.356C44.0813 445.45 41.6076 447.957 38.5561 447.957H12.3534C11.9443 447.957 11.5487 448.105 11.2379 448.375L3.3264 455.237C2.11533 456.287 2.84805 458.298 4.44186 458.298H37.2438C37.2573 458.298 37.2683 458.287 37.2683 458.274C37.2683 458.259 37.2805 458.248 37.2947 458.249C37.7074 458.282 38.1246 458.298 38.5457 458.298C47.247 458.298 54.3008 451.161 54.3008 442.356C54.3008 433.995 47.9399 427.137 39.8476 426.467C39.8339 426.466 39.8232 426.454 39.8232 426.44C39.8232 426.426 39.8113 426.413 39.7967 426.413H16.3931C13.3416 426.413 10.8679 423.906 10.8679 420.812C10.8679 417.719 13.3416 415.211 16.3931 415.211H42.5597C42.9905 415.211 43.4055 415.046 43.7224 414.75L51.0688 407.888C52.2181 406.815 51.4689 404.87 49.9061 404.87H16.8321C16.8305 404.87 16.8293 404.871 16.8293 404.872C16.8293 404.874 16.828 404.875 16.8265 404.875C16.6859 404.872 16.5449 404.87 16.4035 404.87C7.70221 404.87 0.648437 412.007 0.648438 420.812C0.648438 429.617 7.70221 436.755 16.4035 436.755C16.5449 436.755 16.6859 436.753 16.8264 436.749C16.828 436.749 16.8293 436.75 16.8293 436.752C16.8293 436.753 16.8305 436.755 16.8321 436.755Z" fill="black"/>
<path d="M143.361 404.87C142.411 404.87 141.641 405.648 141.641 406.609V456.559C141.641 457.52 142.411 458.298 143.361 458.298H183.14C183.615 458.298 184.069 458.099 184.394 457.749L189.373 452.376C190.403 451.265 189.624 449.447 188.119 449.447H153.387C152.437 449.447 151.667 448.668 151.667 447.707V406.609C151.667 405.648 150.897 404.87 149.948 404.87H143.361Z" fill="black"/>
<path fill-rule="evenodd" clip-rule="evenodd" d="M79.6478 404.87C79.6453 404.87 79.6432 404.872 79.6432 404.874C79.6432 404.877 79.6412 404.879 79.6387 404.879C74.5544 405.101 70.4717 409.218 70.252 414.344C70.2518 414.347 70.2498 414.349 70.2473 414.349C70.2459 414.349 70.2446 414.35 70.2438 414.351C70.2431 414.351 70.2426 414.352 70.2426 414.354V447.953C70.2426 447.955 70.2446 447.957 70.2471 447.957C70.2496 447.957 70.2517 447.959 70.2516 447.962C70.2456 448.103 70.2426 448.245 70.2426 448.388C70.2426 453.716 74.4113 458.061 79.6387 458.289C79.6412 458.289 79.6432 458.291 79.6432 458.294L79.6437 458.296L79.6449 458.297C79.6457 458.298 79.6467 458.298 79.6478 458.298H115.743C115.745 458.298 115.748 458.296 115.748 458.294L115.748 458.291L115.75 458.289L115.752 458.289C120.979 458.061 125.148 453.716 125.148 448.388C125.148 448.245 125.145 448.103 125.139 447.962C125.139 447.959 125.141 447.957 125.144 447.957C125.146 447.957 125.148 447.955 125.148 447.953V414.354C125.148 414.351 125.146 414.349 125.143 414.349C125.141 414.349 125.139 414.347 125.139 414.344C124.919 409.218 120.836 405.101 115.752 404.879C115.75 404.879 115.748 404.877 115.748 404.874C115.748 404.872 115.745 404.87 115.743 404.87H79.6478ZM86.3761 414.349L86.3738 414.35L86.3732 414.352C86.3732 414.353 86.3719 414.355 86.3704 414.355C83.1927 414.494 80.641 417.084 80.5037 420.309C80.5036 420.31 80.5023 420.312 80.5008 420.312C80.4991 420.312 80.4978 420.313 80.4978 420.315V441.45C80.4978 441.451 80.4991 441.452 80.5006 441.452C80.5022 441.452 80.5035 441.454 80.5034 441.455C80.4997 441.544 80.4978 441.634 80.4978 441.724C80.4978 445.075 83.1032 447.808 86.3704 447.951C86.3719 447.951 86.3732 447.953 86.3732 447.954L86.3737 447.956L86.3746 447.957L86.3761 447.957H109.015L109.016 447.957L109.017 447.956L109.018 447.954C109.018 447.953 109.019 447.951 109.02 447.951C112.288 447.808 114.893 445.075 114.893 441.724C114.893 441.634 114.891 441.544 114.887 441.455L114.887 441.455L114.888 441.454L114.89 441.452C114.892 441.452 114.893 441.451 114.893 441.45V420.315C114.893 420.313 114.892 420.312 114.89 420.312C114.889 420.312 114.887 420.31 114.887 420.309C114.75 417.084 112.198 414.494 109.02 414.355C109.019 414.355 109.018 414.353 109.018 414.352L109.017 414.35L109.016 414.349L109.015 414.349H86.3761Z" fill="black"/>
<path fill-rule="evenodd" clip-rule="evenodd" d="M247.217 456.559C247.217 457.52 247.981 458.298 248.923 458.298H255.669C256.611 458.298 257.375 457.52 257.375 456.559V415.215C257.375 415.213 257.373 415.211 257.37 415.211L257.368 415.21L257.367 415.209C257.366 415.209 257.366 415.207 257.366 415.206C257.372 415.065 257.375 414.923 257.375 414.78C257.375 409.452 253.246 405.107 248.068 404.879C248.066 404.879 248.064 404.877 248.064 404.874C248.064 404.872 248.062 404.87 248.059 404.87H213.407C213.404 404.87 213.402 404.872 213.402 404.874C213.402 404.877 213.4 404.879 213.398 404.879C213.259 404.873 213.119 404.87 212.979 404.87C207.603 404.87 203.245 409.307 203.245 414.78C203.245 414.923 203.248 415.065 203.254 415.206C203.254 415.209 203.252 415.211 203.249 415.211C203.247 415.211 203.245 415.213 203.245 415.215V456.559C203.245 457.52 204.008 458.298 204.95 458.298H211.697C212.639 458.298 213.402 457.52 213.402 456.559V439.356C213.402 438.395 214.166 437.616 215.108 437.616H245.512C246.454 437.616 247.217 438.395 247.217 439.356V456.559ZM213.402 428.121V419.519C213.402 416.188 216.055 413.487 219.328 413.487H241.292C244.565 413.487 247.217 416.188 247.217 419.519V428.121C247.217 429.082 246.454 429.861 245.512 429.861H215.108C214.166 429.861 213.402 429.082 213.402 428.121Z" fill="black"/>
<path fill-rule="evenodd" clip-rule="evenodd" d="M389.625 458.298C388.674 458.298 387.903 457.52 387.903 456.559V439.356C387.903 438.395 387.132 437.616 386.181 437.616H355.441C354.49 437.616 353.719 438.395 353.719 439.356V456.559C353.719 457.52 352.949 458.298 351.998 458.298H345.186C344.235 458.298 343.464 457.52 343.464 456.559V415.215L343.464 415.214L343.465 415.213C343.466 415.211 343.467 415.211 343.469 415.211C343.471 415.211 343.473 415.209 343.473 415.206C343.467 415.065 343.464 414.923 343.464 414.78C343.464 409.307 347.864 404.87 353.292 404.87C353.434 404.87 353.575 404.873 353.715 404.879C353.717 404.879 353.719 404.877 353.719 404.874C353.719 404.872 353.721 404.87 353.724 404.87L388.753 404.87C388.756 404.87 388.758 404.872 388.758 404.874C388.758 404.877 388.76 404.879 388.762 404.879C393.99 405.107 398.158 409.452 398.158 414.78C398.158 414.923 398.155 415.065 398.149 415.206C398.149 415.209 398.151 415.211 398.154 415.211C398.155 415.211 398.156 415.211 398.157 415.212C398.158 415.213 398.158 415.214 398.158 415.215V456.559C398.158 457.52 397.388 458.298 396.437 458.298H389.625ZM353.719 419.519V428.121C353.719 429.082 354.49 429.861 355.441 429.861H386.181C387.132 429.861 387.903 429.082 387.903 428.121V419.519C387.903 416.188 385.225 413.487 381.921 413.487H359.702C356.398 413.487 353.719 416.188 353.719 419.519Z" fill="black"/>
<path d="M282.768 404.87C283.268 404.87 283.742 405.093 284.066 405.48L314.323 441.774C315.352 443.004 317.326 442.262 317.326 440.645V406.609C317.326 405.648 318.089 404.87 319.031 404.87H325.778C326.72 404.87 327.483 405.648 327.483 406.609V456.559C327.483 457.52 326.72 458.298 325.778 458.298H317.39C317.354 458.298 317.326 458.269 317.326 458.233C317.326 458.218 317.32 458.203 317.31 458.191L286.546 422.151C285.509 420.94 283.555 421.688 283.555 423.295V456.559C283.555 457.52 282.792 458.298 281.85 458.298H275.06C274.118 458.298 273.355 457.52 273.355 456.559V406.609C273.355 405.648 274.118 404.87 275.06 404.87H282.768Z" fill="black"/>
<defs>
<linearGradient id="paint0_linear" x1="269.52" y1="-84.5428" x2="49.8543" y2="336.206" gradientUnits="userSpaceOnUse">
<stop stop-color="#00FFA3"/>
<stop offset="1" stop-color="#DC1FFF"/>
</linearGradient>
<linearGradient id="paint1_linear" x1="269.52" y1="-84.5428" x2="49.8543" y2="336.206" gradientUnits="userSpaceOnUse">
<stop stop-color="#00FFA3"/>
<stop offset="1" stop-color="#DC1FFF"/>
</linearGradient>
<linearGradient id="paint2_linear" x1="269.52" y1="-84.5428" x2="49.8543" y2="336.206" gradientUnits="userSpaceOnUse">
<stop stop-color="#00FFA3"/>
<stop offset="1" stop-color="#DC1FFF"/>
</linearGradient>
</defs>
</svg>
